<svg width="19" height="19" viewBox="0 0 19 19" fill="none" xmlns="http://www.w3.org/2000/svg">
<circle cx="9.5" cy="9.5" r="8.5" stroke="white"/>
<mask id="path-2-inside-1_2610_3129" fill="white">
<path d="M13.738 12.2381C13.0941 13.0034 12.2336 13.5558 11.2696 13.8224C10.3057 14.0891 9.28356 14.0574 8.33794 13.7317C7.39232 13.406 6.56755 12.8015 5.97227 11.9978C5.37699 11.1941 5.03913 10.2289 5.0032 9.22941C4.96726 8.22991 5.23494 7.24297 5.77097 6.3986C6.307 5.55423 7.08623 4.89204 8.00602 4.49926C8.92581 4.10648 9.943 4.00154 10.9236 4.19826C11.9042 4.39497 12.8022 4.88412 13.4994 5.60127L12.1506 6.91238C11.7184 6.46775 11.1616 6.16448 10.5536 6.04251C9.94566 5.92055 9.315 5.98561 8.74473 6.22914C8.17446 6.47266 7.69134 6.88322 7.359 7.40673C7.02666 7.93024 6.8607 8.54214 6.88298 9.16183C6.90526 9.78152 7.11473 10.3799 7.48381 10.8782C7.85288 11.3765 8.36424 11.7513 8.95052 11.9533C9.53681 12.1552 10.1705 12.1748 10.7682 12.0095C11.3658 11.8442 11.8994 11.5017 12.2985 11.0272L13.738 12.2381Z"/>
</mask>
<path d="M13.738 12.2381C13.0941 13.0034 12.2336 13.5558 11.2696 13.8224C10.3057 14.0891 9.28356 14.0574 8.33794 13.7317C7.39232 13.406 6.56755 12.8015 5.97227 11.9978C5.37699 11.1941 5.03913 10.2289 5.0032 9.22941C4.96726 8.22991 5.23494 7.24297 5.77097 6.3986C6.307 5.55423 7.08623 4.89204 8.00602 4.49926C8.92581 4.10648 9.943 4.00154 10.9236 4.19826C11.9042 4.39497 12.8022 4.88412 13.4994 5.60127L12.1506 6.91238C11.7184 6.46775 11.1616 6.16448 10.5536 6.04251C9.94566 5.92055 9.315 5.98561 8.74473 6.22914C8.17446 6.47266 7.69134 6.88322 7.359 7.40673C7.02666 7.93024 6.8607 8.54214 6.88298 9.16183C6.90526 9.78152 7.11473 10.3799 7.48381 10.8782C7.85288 11.3765 8.36424 11.7513 8.95052 11.9533C9.53681 12.1552 10.1705 12.1748 10.7682 12.0095C11.3658 11.8442 11.8994 11.5017 12.2985 11.0272L13.738 12.2381Z" stroke="white" stroke-width="2" mask="url(#path-2-inside-1_2610_3129)"/>
</svg>
