<svg width="34" height="34" viewBox="0 0 34 34" fill="none" xmlns="http://www.w3.org/2000/svg">
<g clip-path="url(#clip0_2610_3165)">
<path d="M17 3.42169e-06C13.0362 -0.00251037 9.19619 1.38014 6.14383 3.90889C3.09146 6.43763 1.01869 9.95349 0.283886 13.8486C-0.450913 17.7436 0.198463 21.773 2.11973 25.24C4.041 28.707 7.11338 31.3937 10.8056 32.8355C10.6569 31.4904 10.5209 29.4228 10.863 27.9544C11.1733 26.6263 12.8563 19.5033 12.8563 19.5033C12.8563 19.5033 12.3484 18.4854 12.3484 16.9809C12.3484 14.6158 13.719 12.852 15.4254 12.852C16.8746 12.852 17.5759 13.94 17.5759 15.2469C17.5759 16.7046 16.6473 18.8849 16.167 20.9058C15.7675 22.5973 17.017 23.9785 18.6851 23.9785C21.7069 23.9785 24.0295 20.791 24.0295 16.1925C24.0295 12.1231 21.1034 9.27775 16.9278 9.27775C12.0913 9.27775 9.25226 12.9051 9.25226 16.6536C9.25226 18.1156 9.81538 19.6818 10.5166 20.5339C10.577 20.5981 10.6197 20.6769 10.6406 20.7626C10.6614 20.8482 10.6597 20.9378 10.6356 21.0226C10.506 21.5581 10.2191 22.7141 10.1639 22.95C10.0895 23.2603 9.91738 23.3261 9.59438 23.1774C7.46938 22.1893 6.14338 19.0846 6.14338 16.5899C6.14338 11.2285 10.0406 6.30488 17.3761 6.30488C23.273 6.30488 27.8566 10.506 27.8566 16.1224C27.8566 21.981 24.1613 26.6964 19.0358 26.6964C17.3124 26.6964 15.6931 25.8018 15.1385 24.7435L14.0803 28.7853C13.6956 30.2621 12.6586 32.113 11.9659 33.2414C14.3033 33.9641 16.7692 34.1738 19.1951 33.8561C21.621 33.5384 23.9498 32.7008 26.0223 31.4005C28.0948 30.1002 29.8622 28.3679 31.2038 26.322C32.5454 24.276 33.4296 21.9645 33.7959 19.5455C34.1623 17.1264 34.0022 14.6568 33.3265 12.3054C32.6509 9.95387 31.4756 7.77594 29.881 5.92033C28.2865 4.06472 26.3101 2.57516 24.0871 1.55341C21.864 0.531657 19.4466 0.00178989 17 3.42169e-06Z" fill="white"/>
</g>
<defs>
<clipPath id="clip0_2610_3165">
<rect width="34" height="34" fill="white"/>
</clipPath>
</defs>
</svg>
