<svg width="360" height="10" viewBox="0 0 360 10" fill="none" xmlns="http://www.w3.org/2000/svg">
<g clip-path="url(#clip0_2610_1683)">
<rect width="50" height="10" rx="5" fill="white"/>
<rect width="50" height="10" fill="#2E5834"/>
</g>
<rect x="0.5" y="0.5" width="49" height="9" rx="4.5" stroke="#2E5834"/>
<rect x="62.5" y="0.5" width="49" height="9" rx="4.5" fill="white"/>
<rect x="62.5" y="0.5" width="49" height="9" rx="4.5" stroke="#2E5834"/>
<rect x="124.5" y="0.5" width="49" height="9" rx="4.5" fill="white"/>
<rect x="124.5" y="0.5" width="49" height="9" rx="4.5" stroke="#2E5834"/>
<rect x="186.5" y="0.5" width="49" height="9" rx="4.5" fill="white"/>
<rect x="186.5" y="0.5" width="49" height="9" rx="4.5" stroke="#2E5834"/>
<rect x="248.5" y="0.5" width="49" height="9" rx="4.5" fill="white"/>
<rect x="248.5" y="0.5" width="49" height="9" rx="4.5" stroke="#2E5834"/>
<rect x="310.5" y="0.5" width="49" height="9" rx="4.5" fill="white"/>
<rect x="310.5" y="0.5" width="49" height="9" rx="4.5" stroke="#2E5834"/>
<defs>
<clipPath id="clip0_2610_1683">
<rect width="50" height="10" rx="5" fill="white"/>
</clipPath>
</defs>
</svg>
