<svg width="160" height="28" viewBox="0 0 160 28" fill="none" xmlns="http://www.w3.org/2000/svg">
<path d="M13.5245 1.46352C13.6741 1.00287 14.3259 1.00287 14.4755 1.46353L17.0309 9.32827C17.0979 9.53428 17.2899 9.67376 17.5065 9.67376H25.776C26.2603 9.67376 26.4617 10.2936 26.0698 10.5783L19.3797 15.439C19.2044 15.5663 19.1311 15.792 19.1981 15.998L21.7535 23.8627C21.9031 24.3234 21.3759 24.7064 20.984 24.4217L14.2939 19.5611C14.1186 19.4337 13.8814 19.4337 13.7061 19.5611L7.01595 24.4217C6.6241 24.7064 6.09686 24.3234 6.24653 23.8627L8.80194 15.998C8.86888 15.792 8.79555 15.5663 8.62031 15.439L1.93016 10.5783C1.5383 10.2936 1.73969 9.67376 2.22405 9.67376H10.4935C10.7101 9.67376 10.9021 9.53428 10.9691 9.32827L13.5245 1.46352Z" fill="#407948"/>
<path d="M46.5245 1.46352C46.6741 1.00287 47.3259 1.00287 47.4755 1.46353L50.0309 9.32827C50.0979 9.53428 50.2899 9.67376 50.5065 9.67376H58.776C59.2603 9.67376 59.4617 10.2936 59.0698 10.5783L52.3797 15.439C52.2044 15.5663 52.1311 15.792 52.1981 15.998L54.7535 23.8627C54.9031 24.3234 54.3759 24.7064 53.984 24.4217L47.2939 19.5611C47.1186 19.4337 46.8814 19.4337 46.7061 19.5611L40.016 24.4217C39.6241 24.7064 39.0969 24.3234 39.2465 23.8627L41.8019 15.998C41.8689 15.792 41.7956 15.5663 41.6203 15.439L34.9302 10.5783C34.5383 10.2936 34.7397 9.67376 35.224 9.67376H43.4935C43.7101 9.67376 43.9021 9.53428 43.9691 9.32827L46.5245 1.46352Z" fill="#407948"/>
<path d="M79.5245 1.46352C79.6741 1.00287 80.3259 1.00287 80.4755 1.46353L83.0309 9.32827C83.0979 9.53428 83.2899 9.67376 83.5065 9.67376H91.776C92.2603 9.67376 92.4617 10.2936 92.0698 10.5783L85.3797 15.439C85.2044 15.5663 85.1311 15.792 85.1981 15.998L87.7535 23.8627C87.9031 24.3234 87.3759 24.7064 86.984 24.4217L80.2939 19.5611C80.1186 19.4337 79.8814 19.4337 79.7061 19.5611L73.016 24.4217C72.6241 24.7064 72.0969 24.3234 72.2465 23.8627L74.8019 15.998C74.8689 15.792 74.7956 15.5663 74.6203 15.439L67.9302 10.5783C67.5383 10.2936 67.7397 9.67376 68.224 9.67376H76.4935C76.7101 9.67376 76.9021 9.53428 76.9691 9.32827L79.5245 1.46352Z" fill="#407948"/>
<path d="M112.524 1.46352C112.674 1.00287 113.326 1.00287 113.476 1.46353L116.031 9.32827C116.098 9.53428 116.29 9.67376 116.506 9.67376H124.776C125.26 9.67376 125.462 10.2936 125.07 10.5783L118.38 15.439C118.204 15.5663 118.131 15.792 118.198 15.998L120.753 23.8627C120.903 24.3234 120.376 24.7064 119.984 24.4217L113.294 19.5611C113.119 19.4337 112.881 19.4337 112.706 19.5611L106.016 24.4217C105.624 24.7064 105.097 24.3234 105.247 23.8627L107.802 15.998C107.869 15.792 107.796 15.5663 107.62 15.439L100.93 10.5783C100.538 10.2936 100.74 9.67376 101.224 9.67376H109.494C109.71 9.67376 109.902 9.53428 109.969 9.32827L112.524 1.46352Z" fill="#407948"/>
<path d="M145.524 1.46352C145.674 1.00287 146.326 1.00287 146.476 1.46353L149.031 9.32827C149.098 9.53428 149.29 9.67376 149.506 9.67376H157.776C158.26 9.67376 158.462 10.2936 158.07 10.5783L151.38 15.439C151.204 15.5663 151.131 15.792 151.198 15.998L153.753 23.8627C153.903 24.3234 153.376 24.7064 152.984 24.4217L146.294 19.5611C146.119 19.4337 145.881 19.4337 145.706 19.5611L139.016 24.4217C138.624 24.7064 138.097 24.3234 138.247 23.8627L140.802 15.998C140.869 15.792 140.796 15.5663 140.62 15.439L133.93 10.5783C133.538 10.2936 133.74 9.67376 134.224 9.67376H142.494C142.71 9.67376 142.902 9.53428 142.969 9.32827L145.524 1.46352Z" fill="#407948"/>
</svg>
