<svg width="40" height="40" viewBox="0 0 40 40" fill="none" xmlns="http://www.w3.org/2000/svg">
<path d="M16.6667 24.9987L25.3167 19.9987L16.6667 14.9987V24.9987ZM35.9334 11.9487C36.15 12.732 36.3 13.782 36.4 15.1154C36.5167 16.4487 36.5667 17.5987 36.5667 18.5987L36.6667 19.9987C36.6667 23.6487 36.4 26.332 35.9334 28.0487C35.5167 29.5487 34.55 30.5154 33.05 30.932C32.2667 31.1487 30.8334 31.2987 28.6334 31.3987C26.4667 31.5154 24.4834 31.5654 22.65 31.5654L20 31.6654C13.0167 31.6654 8.66671 31.3987 6.95004 30.932C5.45004 30.5154 4.48337 29.5487 4.06671 28.0487C3.85004 27.2654 3.70004 26.2154 3.60004 24.882C3.48337 23.5487 3.43337 22.3987 3.43337 21.3987L3.33337 19.9987C3.33337 16.3487 3.60004 13.6654 4.06671 11.9487C4.48337 10.4487 5.45004 9.48203 6.95004 9.06536C7.73338 8.8487 9.16671 8.6987 11.3667 8.5987C13.5334 8.48203 15.5167 8.43203 17.35 8.43203L20 8.33203C26.9834 8.33203 31.3334 8.5987 33.05 9.06536C34.55 9.48203 35.5167 10.4487 35.9334 11.9487Z" fill="white"/>
</svg>
